<svg width="203" height="47" viewBox="0 0 203 47" fill="none" xmlns="http://www.w3.org/2000/svg">
<path d="M10.4387 40.4539C6.60227 40.4539 3.89594 38.8972 2.31972 35.7839C0.773239 32.6705 0 28.8386 0 24.2883C0 21.8402 0.35688 19.4852 1.07064 17.2233C1.7844 14.9615 2.92939 13.0988 4.5056 11.6352C6.11156 10.1451 8.13388 9.39999 10.5726 9.39999C12.4462 9.39999 14.0819 9.91889 15.4796 10.9567C16.9072 11.9945 17.9927 13.3516 18.7362 15.028C19.5094 16.6778 19.896 18.4075 19.896 20.217L13.5614 20.4964C13.5614 19.2989 13.3384 17.9418 12.8923 16.425C12.4462 14.8817 11.554 14.11 10.2157 14.11C8.8179 14.11 7.85135 15.1078 7.31603 17.1036C6.78071 19.0994 6.51305 21.4943 6.51305 24.2883C6.51305 27.7476 6.81045 30.5284 7.40525 32.6306C8.00005 34.7061 9.14504 35.7439 10.8402 35.7439C12.0298 35.7439 12.8774 35.1186 13.383 33.8679C13.8886 32.5906 14.2157 31.0473 14.3644 29.2378L19.9406 29.7168C19.9406 31.6327 19.5838 33.4156 18.87 35.0654C18.1562 36.6886 17.0856 37.9925 15.6581 38.9771C14.2306 39.9616 12.4908 40.4539 10.4387 40.4539Z" fill="#02283F"/>
<path d="M86.41 40.414C84.7445 40.414 83.5103 40.1213 82.7073 39.5359C81.9044 38.9238 81.3393 38.1122 81.0122 37.1011L79.4954 40.1346L74.7668 39.6556V10.6773L81.0122 9.95882V20.2968C81.7557 19.3389 82.6925 18.5805 83.8226 18.0217C84.9527 17.4362 86.1423 17.1435 87.3914 17.1435C89.3245 17.1435 90.8412 18.0616 91.9416 19.8977C93.042 21.7072 93.5922 24.6343 93.5922 28.679C93.5922 36.5023 91.1981 40.414 86.41 40.414ZM84.0903 36.4225C85.4583 36.4225 86.3356 35.7706 86.7222 34.4667C87.1386 33.1628 87.3468 31.2335 87.3468 28.679C87.3468 26.8961 87.2576 25.539 87.0791 24.6076C86.9304 23.6497 86.6479 22.9711 86.2315 22.572C85.8449 22.1462 85.265 21.9333 84.4918 21.9333C83.9564 21.9333 83.3319 22.1063 82.6181 22.4522C81.9044 22.7982 81.369 23.1308 81.0122 23.4501V30.555C81.0122 32.6838 81.2947 34.2006 81.8598 35.1053C82.4546 35.9834 83.1981 36.4225 84.0903 36.4225Z" fill="#02283F"/>
<path d="M96.9191 9.95882H104.414C108.458 9.95882 111.402 10.664 113.246 12.0743C115.09 13.4847 116.012 15.3474 116.012 17.6624C116.012 19.126 115.685 20.4166 115.031 21.5342C114.406 22.6518 113.529 23.4634 112.399 23.969C113.826 24.6343 114.956 25.5257 115.789 26.6433C116.622 27.7343 117.038 29.3575 117.038 31.513C117.038 37.1011 112.116 39.8951 102.272 39.8951H96.9191V9.95882ZM104.815 22.1329C106.54 22.1329 107.819 21.8801 108.652 21.3745C109.514 20.8689 109.945 19.8311 109.945 18.2612C109.945 16.8774 109.454 15.9328 108.473 15.4272C107.521 14.895 106.213 14.6289 104.547 14.6289H103.254V22.1329H104.815ZM104.681 35.2251C106.822 35.2251 108.369 34.7594 109.321 33.828C110.272 32.8701 110.748 31.8323 110.748 30.7147C110.748 28.985 110.228 27.8408 109.187 27.282C108.176 26.6965 106.748 26.4038 104.904 26.4038H103.477V35.2251H104.681Z" fill="#02283F"/>
<path d="M125.147 40.414C123.512 40.414 122.173 39.9084 121.133 38.8972C120.092 37.8595 119.571 36.4757 119.571 34.7461V17.9019L125.817 17.4229V32.4709C125.817 33.5353 126.01 34.307 126.397 34.786C126.783 35.2384 127.378 35.4645 128.181 35.4645C128.805 35.4645 129.475 35.3315 130.188 35.0654C130.902 34.7727 131.542 34.3203 132.107 33.7083V17.9019L138.397 17.4229V39.6556L132.107 40.1346V37.2607C131.066 38.3251 129.921 39.1234 128.672 39.6556C127.452 40.1612 126.278 40.414 125.147 40.414Z" fill="#02283F"/>
<path d="M148.57 40.414C143.753 40.414 141.344 36.5023 141.344 28.679C141.344 24.6076 141.938 21.6672 143.128 19.8578C144.318 18.0483 146.176 17.1435 148.704 17.1435C149.775 17.1435 150.801 17.4629 151.782 18.1015C152.764 18.7135 153.478 19.4852 153.924 20.4166V10.6773L160.214 9.95882V39.6556L155.485 40.1346L153.924 37.1011C153.626 38.0856 153.076 38.8839 152.273 39.496C151.47 40.108 150.236 40.414 148.57 40.414ZM150.89 36.4225C151.782 36.4225 152.511 35.9834 153.076 35.1053C153.641 34.2006 153.924 32.6838 153.924 30.555V23.051C153.061 21.8535 152.05 21.2548 150.89 21.2548C149.909 21.2548 149.18 21.5741 148.704 22.2127C148.258 22.8248 147.961 23.6364 147.812 24.6476C147.693 25.6587 147.634 27.0026 147.634 28.679C147.634 30.382 147.693 31.7657 147.812 32.8302C147.961 33.8946 148.273 34.7594 148.749 35.4246C149.225 36.0899 149.939 36.4225 150.89 36.4225Z" fill="#02283F"/>
<path d="M170.321 40.414C165.504 40.414 163.095 36.5023 163.095 28.679C163.095 24.6076 163.689 21.6672 164.879 19.8578C166.069 18.0483 167.927 17.1435 170.455 17.1435C171.526 17.1435 172.552 17.4629 173.533 18.1015C174.515 18.7135 175.229 19.4852 175.675 20.4166V10.6773L181.965 9.95882V39.6556L177.236 40.1346L175.675 37.1011C175.377 38.0856 174.827 38.8839 174.024 39.496C173.221 40.108 171.987 40.414 170.321 40.414ZM172.641 36.4225C173.533 36.4225 174.262 35.9834 174.827 35.1053C175.392 34.2006 175.675 32.6838 175.675 30.555V23.051C174.812 21.8535 173.801 21.2548 172.641 21.2548C171.66 21.2548 170.931 21.5741 170.455 22.2127C170.009 22.8248 169.712 23.6364 169.563 24.6476C169.444 25.6587 169.385 27.0026 169.385 28.679C169.385 30.382 169.444 31.7657 169.563 32.8302C169.712 33.8946 170.024 34.7594 170.5 35.4246C170.976 36.0899 171.69 36.4225 172.641 36.4225Z" fill="#02283F"/>
<path d="M186.541 47C185.827 47 184.95 46.9202 183.909 46.7605V42.0904C185.009 42.1437 185.886 42.1703 186.541 42.1703C189.158 42.1703 190.466 41.0793 190.466 38.8972V37.7796L183.284 17.7023L190.065 17.4229L193.589 31.513L196.935 17.5427L202.6 17.5028L196.176 39.496C195.284 42.3699 193.976 44.339 192.251 45.4034C190.556 46.4678 188.652 47 186.541 47Z" fill="#02283F"/>
<path d="M70.0211 9.19111C70.5616 9.19111 71.0003 9.70581 71.0003 10.34V11.5142C71.0003 13.3363 69.1869 13.7867 67.8356 13.7867L65.7089 9.19111H70.0211ZM67.1991 17.2471C68.4505 19.9723 69.0517 22.4217 69.0517 25.6708C69.0517 28.8187 68.2743 31.491 67.0836 34.8182V39.0622C67.0836 40.3306 66.2063 41.36 65.1253 41.36H62.1878C61.1068 41.36 60.2294 40.3306 60.2294 39.0622V36.7644H34.7711V39.0622C34.7711 40.3306 33.8938 41.36 32.8128 41.36H29.8753C28.7943 41.36 27.917 40.3306 27.917 39.0622V34.8182C26.7263 31.491 25.9488 28.8187 25.9488 25.6708C25.9488 22.4217 26.5501 19.9723 27.8014 17.2471C29.4249 13.7154 31.4263 9.31289 33.5393 5.17919C35.1608 2.00366 36.0107 1.25688 38.0004 0.838688C41.0006 0.206799 43.7148 0 47.5003 0C51.2857 0 54 0.206799 57.0002 0.838688C58.9898 1.25688 59.8397 2.00366 61.4612 5.17919C63.5743 9.31289 65.5757 13.7154 67.1991 17.2471ZM35.7503 24.1267C35.7503 22.2241 34.4343 20.68 32.8128 20.68C31.1913 20.68 29.8753 22.2241 29.8753 24.1267C29.8753 26.0292 31.1913 27.5733 32.8128 27.5733C34.4343 27.5733 35.7503 26.0292 35.7503 24.1267ZM55.3336 26.4244C55.3336 25.7903 54.8949 25.2756 54.3544 25.2756H40.6461C40.1056 25.2756 39.667 25.7903 39.667 26.4244C39.667 27.0586 40.1056 27.5733 40.6461 27.5733H54.3544C54.8949 27.5733 55.3336 27.0586 55.3336 26.4244ZM61.0931 13.7246C61.0931 13.7246 59.6439 9.52888 57.899 6.50501C57.5034 5.82027 56.8905 5.35152 56.1972 5.20447C53.2382 4.57947 50.6454 4.37956 47.5003 4.37956C44.3552 4.37956 41.7624 4.57947 38.8033 5.20447C38.1101 5.34923 37.4971 5.81797 37.1015 6.50501C35.3567 9.52658 33.9075 13.7246 33.9075 13.7246C37.1192 14.4438 42.346 14.8666 47.5003 14.8666C52.6546 14.8666 57.8814 14.4438 61.0931 13.7246ZM65.1253 24.1267C65.1253 22.2241 63.8093 20.68 62.1878 20.68C60.5663 20.68 59.2503 22.2241 59.2503 24.1267C59.2503 26.0292 60.5663 27.5733 62.1878 27.5733C63.8093 27.5733 65.1253 26.0292 65.1253 24.1267ZM29.2917 9.19111H24.9795C24.439 9.19111 24.0003 9.70581 24.0003 10.34V11.5142C24.0003 13.3363 25.8137 13.7867 27.165 13.7867L29.2917 9.19111Z" fill="#02283F"/>
</svg>
