<svg viewBox="0 0 32 31" fill="#ffffff" xmlns="http://www.w3.org/2000/svg">
<path d="M30.0619 5.53979L27.9117 7.64219L20.6487 14.7438L19.9113 15.4649L20.6546 16.1797L27.9177 23.1636L27.9176 23.1637L27.9271 23.1725L30.0539 25.1654L25.7367 29.3867L23.667 27.2751L23.6671 27.275L23.6579 27.2659L16.5153 20.1642L15.8161 19.4691L15.1111 20.1584L7.84802 27.26L5.66536 29.3942L1.43811 25.1729L3.57293 23.1725L3.58069 23.1652L3.58829 23.1578L10.731 16.1739L11.4561 15.4648L10.7369 14.7497L3.59424 7.64806L3.59426 7.64803L3.58829 7.64219L1.43037 5.53223L5.65796 1.39859L7.84802 3.53997L7.84799 3.54L7.85401 3.54579L15.1171 10.5297L15.816 11.2018L16.5093 10.5239L23.652 3.53997L23.6596 3.53254L23.667 3.52494L25.744 1.40583L30.0619 5.53979Z" 
fill="#3c3c3c" />
</svg>
